<svg xmlns="http://www.w3.org/2000/svg" xmlns:xlink="http://www.w3.org/1999/xlink" width="26" height="23" viewBox="0 0 26 23">
    <defs>
        <path id="a" d="M0 0h44v44H0z"/>
    </defs>
    <g fill="none" fill-rule="evenodd" transform="translate(-9 -10)">
        <mask id="b" fill="#fff">
            <use xlink:href="#a"/>
        </mask>
        <g mask="url(#b)">
            <path fill="#111" d="M29.83 16h-1.305l-4.3-5.126a.5.5 0 1 1 .765-.643L29.83 16zM15.475 16h-1.306l4.84-5.769a.5.5 0 0 1 .767.643L15.475 16z"/>
            <path stroke="#111" d="M31.8 30.825c-.185.967-.95 1.675-1.87 1.675H14.07c-.92 0-1.685-.709-1.87-1.674L9.743 18.288a1.5 1.5 0 0 1 1.472-1.788h21.57a1.5 1.5 0 0 1 1.472 1.788l-2.456 12.537z"/>
            <g fill="#111" transform="translate(18.5 21)">
                <rect width="1" height="7" rx=".5"/>
                <rect width="1" height="7" x="6" rx=".5"/>
                <rect width="1" height="7" x="3" rx=".5"/>
            </g>
        </g>
    </g>
</svg>
