<svg xmlns="http://www.w3.org/2000/svg" xmlns:xlink="http://www.w3.org/1999/xlink" width="26" height="22" viewBox="0 0 26 22">
    <defs>
        <path id="a" d="M0 0h44v44H0z"/>
    </defs>
    <g fill="none" fill-rule="evenodd" transform="translate(-9 -11)">
        <mask id="b" fill="#fff">
            <use xlink:href="#a"/>
        </mask>
        <path stroke="#111" d="M22 13.82a7.216 7.216 0 0 1 5.319-2.32c3.964 0 7.181 3.163 7.181 7.069 0 3.37-2.33 6.65-6.187 9.743a37.82 37.82 0 0 1-4.18 2.893c-.5.3-.963.563-1.379.789-.251.136-.432.23-.53.28l-.235.116-.23-.125a22.158 22.158 0 0 1-.528-.303 42.179 42.179 0 0 1-1.376-.847 43.023 43.023 0 0 1-4.173-3.026c-3.856-3.186-6.182-6.403-6.182-9.52 0-3.906 3.217-7.069 7.181-7.069 2.058 0 3.973.859 5.319 2.32z" mask="url(#b)"/>
    </g>
</svg>
