<svg viewBox="0 0 260 106" xmlns="http://www.w3.org/2000/svg"><path d="M43.32.63c6.45 19.16 8.06 39.86 4.67 59.8-4.37 3.21-9.85 4.85-14.64 7.44 2.1-6.3 6.55-11.44 8.82-17.66 3.96-10.24 3.48-21.42 3.08-32.19-.19-5.84-1.21-11.61-1.93-17.39zM1.49 15.16c.35 3.26.52 6.56 1.17 9.78 2.82 12.24 6.22 24.41 11.18 35.98l-3.44-.39C6.7 48.99 3.96 37.14 2.05 25.17c-.63-3.3-.45-6.67-.56-10.01zm90.47 33.85c3.03-2.59 7.25-3.13 11.1-3.16 3.98.19 8.51 1.07 11.01 4.49 1.4 1.8 1.61 4.12 1.92 6.29-2.24.14-4.49.15-6.73.13-.33-5.39-6.89-5.64-10.87-4.4-3.01.56-3.05 5.3-.27 6.23 4.96 2.09 10.96 1.26 15.4 4.71 4.6 3.14 5.14 10.5 1.21 14.38-3.02 3.04-7.55 3.8-11.66 3.82-4.35.02-9.21-.96-12.12-4.48-1.81-2-2.15-4.78-2.48-7.34 2.24-.08 4.49-.09 6.74-.1.62 1.78.79 4.23 2.84 5 3.28 1.31 7.3 1.45 10.51-.13 2.8-1.56 2.38-6.36-.72-7.32-4.97-1.9-10.86-1.19-15.27-4.53-4.3-3.03-4.66-10.2-.61-13.59zm100.45 31.88c-.08-11.48-.07-22.96 0-34.44 2.28-.04 4.57-.04 6.86 0 .09 6.84-.02 13.69.06 20.54 3.47-3.17 6.59-6.69 10.04-9.88 1.23-1.29 3.18-.66 4.75-.81l.06 5.35c-2.05 2.1-4.13 4.16-6.19 6.25 2.24 2.54 4.42 5.12 6.64 7.68-.02 1.81-.05 3.61-.11 5.42-1.36-.1-2.73 0-4.05-.34-2.66-2.44-4.96-5.24-7.49-7.81-2.53 2.03-4.43 4.64-3.78 8.05-2.26.02-4.53.02-6.79-.01zM52.3 49.11c4.87-1.19 9.9-1.9 14.9-1.12-6.07 2.91-11.69 6.75-16.2 11.79.37-3.57.64-7.15 1.3-10.67zm68 7.22c2.47.25 5.96-1.18 7.22 1.76 3.22-2.46 7.73-3.17 11.35-1.14 7.51 4.24 8.06 16.14 2.09 21.92-3.8 3.57-9.85 3.29-13.79.1.08 3.94.08 7.88.02 11.83-2.3.04-4.59.05-6.87 0-.07-11.49-.05-22.98-.02-34.47m9.91 5.9c-5.37 2.94-3.71 14.91 3.66 13.21 4.27-.86 4.49-6.06 3.87-9.5-.4-3.43-4.56-5.29-7.53-3.71zm17.68-5.86c2.07-.08 4.15-.09 6.22-.09l.72 1.91c2.71-2.08 6.15-2.04 9.39-1.89.03 1.95.03 3.91.01 5.87-3 .23-7.6-.8-8.87 2.9-1.15 5.17-.26 10.55-.56 15.81-2.31.04-4.61.03-6.92-.02-.02-8.17-.03-16.33.01-24.49zm18.78-.04c1.77-.04 3.54-.03 5.31-.01 2.1 5.89 4.12 11.82 6.26 17.7 2.36-5.84 4.2-11.87 6.45-17.75 1.73.01 3.47.04 5.2.1.89 6.08-2.64 11.33-4.57 16.84-1.97 4.38-3.1 9.23-5.95 13.16-2.71 3.26-7.31 3.11-11.15 3-.03-1.92-.04-3.85-.06-5.78 2.18-.34 4.93.47 6.46-1.55-1.71-6.37-4.9-12.29-7.2-18.49-1.13-2.24-.69-4.81-.75-7.22zm53.72 1.96c4.97-4.07 13.48-3.26 17.12 2.22 2.21 3.07 2.39 6.98 2.23 10.61-5.57.21-11.17-.33-16.71.35 1.23 4.29 6.83 5.45 9.68 2.08 2.15.01 4.3.04 6.45.15-2.02 9.95-17.44 10.31-21.53 1.8-2.65-5.48-2.11-13.11 2.76-17.21m2.83 7.82c3.14.11 6.28.11 9.43.01-.57-2.22-2.02-4.7-4.68-4.41-2.68-.32-4.21 2.16-4.75 4.4zm20.06-9.78c2.43.26 5.86-1.16 7.17 1.67 2.76-1.94 6.19-1.91 9.41-1.56.01 1.89-.02 3.79-.09 5.68-3.14.3-8.17-.82-9.23 3.3-.76 5.1-.12 10.31-.37 15.45-2.29.05-4.58.05-6.87.02-.07-8.18-.05-16.37-.02-24.56zM3.89 68.01c1.36-2.21 3.34-3.86 5.55-5.18 1.1 2.85 2.06 5.75 3.13 8.6-2.53-1.95-5.42-3.4-8.68-3.42zm7.09-5.4c4.42 1.19 7.13 5.02 9.3 8.76-2.15-.01-4.3-.03-6.45-.06-1-2.88-2.01-5.77-2.85-8.7zm21.17 9.23c5.14-2.52 10.28-5.04 15.37-7.67-6.62 9.57-10.26 21.09-10.44 32.72-5.41-7.04-6.97-16.49-4.93-25.05zm-17.38 1.95c2.22.13 4.44.29 6.67.42 2.4 6.65 3.75 13.76 3.19 20.84-1.88-7.64-5.1-14.97-9.86-21.26zm19.89 26.27l2.7-1.39c-.02 3.07-.94 6.13-4.13 7.32l.93.01h-1.81c-3.24-1.1-5.79-3.49-7.03-6.68 2.25 2.01 4.15 4.55 7.19 5.42l1.87-1.87.28-2.81z"/></svg>